<?xml version="1.0" encoding="utf-8"?>
<!-- Generator: Adobe Illustrator 23.0.1, SVG Export Plug-In . SVG Version: 6.00 Build 0)  -->
<svg version="1.1" id="Layer_1" xmlns="http://www.w3.org/2000/svg" xmlns:xlink="http://www.w3.org/1999/xlink" x="0px" y="0px"
	 viewBox="0 0 484.1 141.7" style="enable-background:new 0 0 484.1 141.7;" xml:space="preserve">
<style type="text/css">
	.st0{fill:#FFFFFF;}
	.st1{fill:#FF875B;}
</style>
<g>
	<path class="st0" d="M210.3,44.1c-11,0-19.8,5-22.3,12.8c-0.2,0.7-0.1,1.4,0.2,2c0.3,0.6,0.9,0.9,1.5,1.1l9.8,2.5
		c1,0.2,2-0.4,2.4-1.3c1.1-2.7,4.2-4.2,8.7-4.2c5.9,0,9.1,2.9,9.1,8.3v2.4h-11.3c-14.6,0-23.3,7.2-23.3,19.3
		c0,13.1,10,17.7,19.4,17.7c6.3,0,11.5-1.9,15.1-5.4v2.3c0,1.2,1,2.2,2.2,2.2h9.9c1.2,0,2.2-1,2.2-2.2V63.9
		C234,52.2,224.3,44.1,210.3,44.1z M219.8,78.3v4.9c0,5.9-6.1,9.4-12,9.4c-4,0-8.2-1.7-8.2-6.6c0-4.9,4.2-7.7,11.5-7.7H219.8z"/>
	<path class="st0" d="M275.7,45.2c-1.5-0.6-3.2-0.9-5.1-0.9c-5.1,0-9.2,2.1-12.3,6.2v-3.3c0-1.2-1-2.2-2.2-2.2h-9.9
		c-1.2,0-2.2,1-2.2,2.2v54.4c0,1.2,1,2.2,2.2,2.2h9.9c1.2,0,2.2-1,2.2-2.2V69.9c0-6.8,4.9-10.1,9.9-10.4c1.7-0.2,2.7-0.2,3.8,0.1
		c1.2,0.2,2.4-0.5,2.6-1.7l2.6-9.7C277.5,46.9,276.8,45.6,275.7,45.2z"/>
	<path class="st0" d="M363.4,44.1c-11.6,0-20.3,6.5-23.4,17.5c-1,3.3-1.5,7.3-1.3,12.4c0,6.3,0.8,11.3,2.5,15.4
		c3.8,9.7,12,15.2,23.3,15.4c0.1,0,0.3,0,0.4,0c9.3,0,17.4-3.9,22-10.7c0.7-1,0.5-2.1-0.5-2.9l-6.7-5.7c-0.6-0.5-1.2-0.6-1.6-0.5
		c-0.4,0.1-1,0.3-1.5,1c-2.7,3.9-6.4,5.9-11,5.9c-6.3-0.1-10.3-2.6-11.9-7.6c-0.5-1.1-0.7-2.7-0.9-4.4h33.5c1.3,0,2.1-0.9,2.2-2.2
		c0.1-3.8,0.1-6.7-0.3-9.8C386.4,52.1,378.1,44.1,363.4,44.1z M374.2,68.5H353c0.1-1.9,0.4-3.2,0.8-4.3l0-0.1
		c1.4-4.7,4.7-7.2,9.6-7.2c5.2,0,9,2.9,10.2,7.9C373.9,65.6,374.1,67,374.2,68.5z"/>
	<path class="st0" d="M424.4,44.1c-5.6,0-10,1.7-13.1,5.1v-2.1c0-1.3-0.9-2.2-2.2-2.2h-9.9c-1.2,0-2.2,0.9-2.2,2.2v54.4
		c0,1.3,0.9,2.2,2.2,2.2h9.9c1.2,0,2.2-0.9,2.2-2.2v-34c0-6.3,3.8-10.5,9.5-10.5c5.7,0,9.4,4.2,9.4,10.6v33.9c0,1.3,0.9,2.2,2.2,2.2
		h9.9c1.2,0,2.2-0.9,2.2-2.2V64.9C444.5,52.2,436.6,44.1,424.4,44.1z"/>
	<path class="st0" d="M482,45h-10.7V32c0-0.7-0.3-1.3-0.8-1.7c-0.5-0.4-1.2-0.5-1.8-0.4l-9.4,2.3c-1,0.2-1.6,1.1-1.6,2.1V45h-5.4
		c-1.2,0-2.2,1-2.2,2.2V55c0,1.2,1,2.2,2.2,2.2h5.4v31.5c0.1,13.4,8.7,15.2,17.9,15.2c0.9,0,1.8,0,2.8-0.1c0.9,0,1.9-0.1,2.9-0.1
		l0.1,0c1.3-0.2,2-1,2-2.3v-8.4c0-1.2-1-2.2-2.2-2.2h-3.2c-4.7,0-6.6-2.1-6.6-7.2V57.2H482c1.2,0,2.2-1,2.2-2.2v-7.8
		C484.1,45.9,483.2,45,482,45z"/>
	<path class="st0" d="M328,45h-9.9c-1.2,0-2.1,0.9-2.1,2.2v1.5c-3.3-3.1-7.6-4.6-13-4.6c-9.7,0-17.6,5.9-20.6,15.5
		c-1.6,4.5-1.8,10.1-1.8,14.4c0,5.7,0.5,10.1,1.4,13.7c3.4,11.4,13.5,15.5,21.7,15.5c5.1,0,9.3-1.5,12.3-4.3
		c-0.1,4.8-1.3,8.2-3.8,10.5c-3.3,3-8.9,4.1-17.1,3.3c-2.1,0-2.4,1.5-2.4,2l-0.3,9.1c0,1.3,0.7,2.1,2,2.3c2,0.2,4,0.3,6,0.3
		c9.2,0,16.9-2.4,22-7c5.2-4.7,7.9-11.7,7.9-20.6V47.1C330.2,45.9,329.2,45,328,45z M316,73.8c0,6.2-0.2,7.7-0.7,9.7
		c-1.1,4.7-4.6,7.4-9.4,7.4c-4.8,0-8.5-2.8-10-7.6c-0.5-1.2-1-3.8-1-9.4c0-4.4,0.4-7.4,1.2-9.5c1.6-4.8,5.1-7.5,9.6-7.5
		c4.8,0,8.3,2.8,9.4,7.5C315.7,66.4,316,67.8,316,73.8z"/>
</g>
<path class="st1" d="M97.5,0H57.6c-1.3,0-2.4,1.1-2.4,2.5C54.3,41.2,34.7,77.9,1,103.9c-1.1,0.8-1.3,2.4-0.5,3.5l23.3,33.3
	c0.8,1.1,2.3,1.4,3.4,0.6c21.1-16.2,38.1-35.6,50.3-57.2c12.2,21.6,29.2,41.1,50.3,57.2c1.1,0.8,2.6,0.6,3.4-0.6l23.3-33.3
	c0.8-1.1,0.5-2.7-0.5-3.5c-33.7-26-53.3-62.7-54.1-101.4C99.9,1.1,98.8,0,97.5,0z"/>
</svg>
