<?xml version="1.0" encoding="utf-8"?>
<!-- Generator: Adobe Illustrator 16.0.4, SVG Export Plug-In . SVG Version: 6.00 Build 0)  -->
<!DOCTYPE svg PUBLIC "-//W3C//DTD SVG 1.1//EN" "http://www.w3.org/Graphics/SVG/1.1/DTD/svg11.dtd">
<svg version="1.1" id="Layer_1" xmlns="http://www.w3.org/2000/svg" xmlns:xlink="http://www.w3.org/1999/xlink" x="0px" y="0px"
	 width="312.333px" height="89.667px" viewBox="0 0 312.333 89.667" enable-background="new 0 0 312.333 89.667"
	 xml:space="preserve">
<title>Group 8</title>
<desc>Created with Sketch.</desc>
<path id="Bounties" fill="#FFFFFF" d="M23.132,49.294c1.303,0,2.368-0.178,3.256-0.473c0.829-0.303,1.54-0.717,2.013-1.244
	c0.533-0.533,0.888-1.125,1.066-1.836c0.178-0.708,0.296-1.361,0.296-2.136c0-0.77-0.118-1.537-0.355-2.131
	c-0.237-0.65-0.592-1.185-1.125-1.601c-0.533-0.474-1.185-0.771-2.072-1.006c-0.829-0.235-1.895-0.354-3.138-0.354h-6.928V49.35
	L23.132,49.294L23.132,49.294z M16.145,22.237v10.659h5.388c1.125,0,2.131-0.119,3.079-0.297c0.948-0.177,1.658-0.474,2.25-0.888
	s1.066-0.947,1.362-1.658c0.296-0.71,0.474-1.479,0.474-2.487c0-1.007-0.119-1.835-0.415-2.487
	c-0.237-0.709-0.651-1.244-1.185-1.658c-0.533-0.414-1.243-0.711-2.072-0.887c-0.829-0.179-1.835-0.297-2.96-0.297H16.145z
	 M22.007,16.079c2.665,0,4.915,0.237,6.809,0.771c1.895,0.533,3.434,1.185,4.619,2.132c1.184,0.889,2.072,2.014,2.605,3.316
	c0.533,1.302,0.829,2.783,0.829,4.381c0,0.888-0.119,1.775-0.415,2.605c-0.237,0.828-0.651,1.599-1.243,2.367
	c-0.533,0.71-1.244,1.422-2.132,2.014c-0.888,0.592-1.895,1.125-3.079,1.539c2.665,0.65,4.678,1.658,5.98,3.08
	c1.303,1.42,1.954,3.314,1.954,5.564c0,1.657-0.296,3.196-0.948,4.677c-0.651,1.422-1.599,2.664-2.842,3.73
	c-1.244,1.065-2.783,1.895-4.559,2.486c-1.776,0.592-3.967,0.829-6.276,0.829H7.973V16.079H22.007z M55.757,27.034
	c2.131,0,4.026,0.354,5.743,1.006c1.717,0.65,3.198,1.658,4.441,2.9c1.244,1.243,2.191,2.784,2.842,4.559s1.006,3.791,1.006,6.041
	s-0.355,4.262-1.006,6.04c-0.651,1.775-1.599,3.313-2.842,4.562c-1.243,1.241-2.724,2.188-4.441,2.897
	c-1.717,0.648-3.612,1.006-5.743,1.006c-2.132,0-4.026-0.354-5.803-1.006c-1.717-0.647-3.197-1.656-4.441-2.897
	c-1.243-1.244-2.19-2.783-2.901-4.562c-0.71-1.771-1.006-3.79-1.006-6.04s0.355-4.264,1.006-6.041
	c0.711-1.775,1.658-3.315,2.901-4.559c1.244-1.244,2.724-2.191,4.441-2.9C51.671,27.329,53.625,27.034,55.757,27.034z
	 M55.757,50.362c2.131,0,3.73-0.711,4.796-2.188c1.007-1.479,1.54-3.671,1.54-6.632c0-2.899-0.533-5.092-1.54-6.571
	c-1.006-1.479-2.605-2.191-4.796-2.191s-3.79,0.711-4.855,2.191s-1.54,3.672-1.54,6.571c0,2.901,0.533,5.151,1.54,6.632
	C51.967,49.591,53.566,50.362,55.757,50.362z M99.217,27.507v28.065h-4.619c-0.947,0-1.599-0.414-1.835-1.307l-0.474-1.955
	c-0.592,0.533-1.125,1.064-1.717,1.48c-0.592,0.477-1.244,0.83-1.895,1.188c-0.71,0.354-1.421,0.594-2.191,0.771
	c-0.77,0.18-1.658,0.297-2.546,0.297c-1.54,0-2.901-0.236-4.085-0.771c-1.184-0.529-2.191-1.24-2.96-2.188
	c-0.77-0.945-1.421-2.07-1.835-3.375c-0.415-1.303-0.651-2.726-0.651-4.32V27.568h7.52V45.39c0,1.541,0.355,2.783,1.066,3.611
	c0.71,0.828,1.776,1.305,3.197,1.305c1.066,0,2.013-0.238,2.96-0.711c0.947-0.475,1.835-1.066,2.665-1.896V27.508L99.217,27.507
	L99.217,27.507z M112.362,30.763c0.592-0.533,1.125-1.065,1.776-1.479c0.592-0.475,1.244-0.83,1.954-1.186s1.421-0.592,2.191-0.77
	c0.77-0.179,1.658-0.297,2.546-0.297c1.54,0,2.901,0.237,4.085,0.771c1.184,0.532,2.191,1.243,2.96,2.19
	c0.829,0.947,1.421,2.072,1.835,3.375c0.415,1.303,0.592,2.726,0.592,4.321v17.884h-7.46V37.748c0-1.539-0.355-2.782-1.066-3.61
	c-0.71-0.89-1.776-1.304-3.197-1.304c-1.066,0-2.013,0.235-2.96,0.649c-0.947,0.476-1.835,1.066-2.665,1.896v20.189h-7.52V27.505
	h4.618c0.947,0,1.599,0.415,1.895,1.302L112.362,30.763z M165.533,55.574h-7.521V32.896h-12.435V47.52
	c0,0.771,0.178,1.42,0.533,1.836c0.355,0.474,0.889,0.649,1.6,0.649c0.354,0,0.65-0.059,0.946-0.118
	c0.237-0.06,0.474-0.179,0.651-0.296c0.177-0.118,0.354-0.178,0.533-0.297c0.178-0.117,0.295-0.117,0.474-0.117
	c0.237,0,0.415,0.06,0.532,0.179c0.119,0.117,0.297,0.295,0.416,0.531l2.25,3.612c-1.006,0.828-2.19,1.42-3.493,1.834
	c-1.304,0.416-2.665,0.646-4.085,0.646c-1.244,0-2.369-0.178-3.375-0.527c-1.008-0.354-1.836-0.893-2.487-1.604
	s-1.185-1.539-1.54-2.482c-0.355-1.012-0.533-2.072-0.533-3.314V32.896h-2.664c-0.414,0-0.711-0.119-1.007-0.355
	c-0.296-0.235-0.415-0.65-0.415-1.125v-2.959l4.5-0.83l1.54-7.282c0.179-0.829,0.771-1.244,1.658-1.244h3.908v8.526h19.951v27.947
	H165.533L165.533,55.574z M166.717,19.454c0,0.592-0.119,1.185-0.354,1.776c-0.231,0.533-0.592,1.006-1.006,1.421
	s-0.947,0.71-1.479,1.008c-0.533,0.295-1.186,0.354-1.836,0.354c-0.594,0-1.186-0.118-1.775-0.354
	c-0.592-0.238-1.062-0.593-1.479-1.008s-0.771-0.888-1.008-1.421c-0.232-0.532-0.354-1.125-0.354-1.776
	c0-0.65,0.119-1.244,0.354-1.775c0.236-0.532,0.592-1.066,1.008-1.48c0.414-0.414,0.893-0.77,1.479-1.006
	c0.596-0.236,1.125-0.355,1.775-0.355s1.242,0.119,1.836,0.355c0.592,0.236,1.064,0.592,1.479,1.006
	c0.414,0.416,0.771,0.889,1.006,1.48C166.596,18.209,166.717,18.803,166.717,19.454z M189.807,38.224
	c0-0.771-0.115-1.539-0.295-2.25c-0.236-0.709-0.531-1.361-1.008-1.896c-0.473-0.533-1.006-0.946-1.717-1.304
	c-0.711-0.354-1.539-0.473-2.486-0.473c-1.775,0-3.195,0.532-4.205,1.54c-1.006,1.006-1.654,2.486-2.012,4.381L189.807,38.224
	L189.807,38.224z M177.967,42.664c0.235,2.604,1.006,4.559,2.25,5.802c1.244,1.242,2.899,1.836,4.914,1.836
	c1.008,0,1.955-0.118,2.666-0.354c0.709-0.236,1.42-0.533,2.012-0.828c0.593-0.297,1.066-0.595,1.539-0.83
	c0.476-0.232,0.949-0.354,1.363-0.354c0.592,0,1.006,0.235,1.36,0.649l2.188,2.726c-0.771,0.946-1.653,1.717-2.664,2.312
	c-0.944,0.594-1.953,1.063-3.021,1.422c-1.062,0.354-2.07,0.594-3.137,0.711c-1.064,0.117-2.072,0.18-3.08,0.18
	c-1.953,0-3.789-0.297-5.508-0.945c-1.719-0.65-3.195-1.602-4.439-2.844c-1.24-1.244-2.25-2.842-2.961-4.682
	c-0.709-1.896-1.062-4.023-1.062-6.509c0-1.896,0.295-3.73,0.947-5.391c0.648-1.717,1.539-3.137,2.723-4.439
	c1.188-1.244,2.604-2.25,4.322-2.959c1.717-0.711,3.611-1.125,5.744-1.125c1.773,0,3.434,0.295,4.973,0.828
	c1.541,0.592,2.846,1.422,3.908,2.487c1.064,1.065,1.955,2.429,2.547,4.027c0.596,1.598,0.891,3.375,0.891,5.446
	c0,0.592,0,1.006-0.062,1.36c-0.061,0.355-0.117,0.65-0.295,0.89c-0.119,0.235-0.297,0.354-0.533,0.476
	c-0.234,0.116-0.477,0.116-0.83,0.116h-16.754V42.664z M218.643,33.25c-0.178,0.295-0.412,0.533-0.592,0.649
	c-0.234,0.119-0.475,0.179-0.83,0.179c-0.354,0-0.709-0.119-1.125-0.295c-0.414-0.179-0.828-0.354-1.301-0.593
	c-0.475-0.238-1.008-0.416-1.6-0.592c-0.592-0.178-1.307-0.296-2.133-0.296c-1.242,0-2.135,0.236-2.846,0.771
	c-0.711,0.532-1.006,1.185-1.006,1.954c0,0.593,0.178,1.007,0.592,1.421c0.414,0.413,0.893,0.711,1.539,1.006
	c0.648,0.297,1.36,0.532,2.137,0.771c0.77,0.237,1.598,0.533,2.482,0.83c0.828,0.295,1.654,0.649,2.48,1.006
	c0.771,0.354,1.541,0.83,2.137,1.422c0.646,0.594,1.125,1.242,1.537,2.072c0.354,0.828,0.596,1.774,0.596,2.9
	c0,1.356-0.232,2.604-0.771,3.791c-0.475,1.125-1.244,2.131-2.188,2.959c-0.947,0.83-2.133,1.479-3.611,1.955
	c-1.422,0.473-3.077,0.711-4.975,0.711c-0.947,0-1.896-0.062-2.847-0.238c-0.942-0.176-1.834-0.414-2.726-0.709
	c-0.828-0.297-1.655-0.711-2.366-1.125c-0.771-0.416-1.358-0.889-1.953-1.363l1.717-2.783c0.183-0.354,0.478-0.592,0.771-0.77
	c0.3-0.178,0.711-0.295,1.188-0.295c0.476,0,0.89,0.117,1.244,0.354s0.828,0.475,1.303,0.709c0.476,0.238,1.007,0.533,1.658,0.711
	c0.646,0.236,1.42,0.355,2.429,0.355c0.711,0,1.36-0.059,1.896-0.236c0.532-0.178,0.946-0.414,1.303-0.65
	c0.354-0.295,0.597-0.594,0.711-0.942c0.181-0.354,0.236-0.712,0.236-1.125c0-0.597-0.179-1.125-0.593-1.539s-0.89-0.71-1.539-1.009
	c-0.651-0.297-1.362-0.529-2.19-0.771c-0.83-0.236-1.653-0.473-2.483-0.771c-0.828-0.295-1.658-0.649-2.485-1.006
	c-0.824-0.414-1.537-0.89-2.132-1.539c-0.647-0.592-1.125-1.362-1.541-2.25c-0.414-0.89-0.592-1.955-0.592-3.258
	c0-1.185,0.233-2.25,0.647-3.315c0.478-1.066,1.125-1.954,2.071-2.783c0.89-0.771,2.015-1.421,3.375-1.896
	c1.361-0.474,2.902-0.709,4.679-0.709c2.019,0,3.789,0.354,5.446,1.006c1.658,0.652,2.962,1.48,4.027,2.547L218.643,33.25z"/>
<path id="Network" fill="#FFFFFF" d="M9.454,62.973c0.119,0,0.237,0,0.355,0c0.118,0,0.177,0.062,0.237,0.062
	c0.059,0.062,0.118,0.062,0.237,0.116c0.059,0.062,0.118,0.179,0.237,0.236l8.526,10.896c-0.06-0.232-0.06-0.533-0.06-0.771
	c0-0.238,0-0.474,0-0.71v-9.889h2.665v16.342h-1.54c-0.237,0-0.414-0.059-0.592-0.119c-0.178-0.059-0.296-0.235-0.474-0.413
	l-8.526-10.836c0,0.237,0.059,0.475,0.059,0.711c0,0.235,0,0.476,0,0.651v10.006H7.913V62.973H9.454L9.454,62.973z M51.73,62.973
	v2.428h-7.223v4.5h5.684v2.312h-5.684v4.617h7.224v2.432H41.487V62.975L51.73,62.973L51.73,62.973z M82.401,62.973v2.485h-4.914
	v13.797h-3.02V65.458h-4.915v-2.485H82.401z M99.395,62.973h2.546c0.237,0,0.474,0.062,0.651,0.178
	c0.178,0.119,0.296,0.298,0.355,0.476l2.783,9.711c0.059,0.236,0.118,0.477,0.178,0.771c0.059,0.295,0.118,0.595,0.178,0.89
	c0.059-0.295,0.118-0.595,0.177-0.89c0.06-0.297,0.178-0.53,0.237-0.771l3.198-9.711c0.059-0.178,0.177-0.354,0.355-0.476
	c0.178-0.116,0.415-0.235,0.651-0.235h0.888c0.237,0,0.474,0.062,0.651,0.182c0.178,0.115,0.296,0.297,0.355,0.475l3.197,9.711
	c0.177,0.479,0.296,1.012,0.415,1.604c0.059-0.297,0.118-0.592,0.177-0.829c0.06-0.296,0.119-0.533,0.178-0.771l2.783-9.713
	c0.06-0.18,0.178-0.355,0.355-0.475c0.178-0.119,0.415-0.182,0.651-0.182h2.369l-5.033,16.283h-2.724l-3.553-11.134
	c-0.059-0.116-0.118-0.297-0.118-0.476c-0.06-0.178-0.119-0.354-0.119-0.532c-0.059,0.181-0.118,0.354-0.118,0.532
	c-0.06,0.179-0.119,0.298-0.119,0.476l-3.612,11.134h-2.901L99.395,62.973z M156.651,71.145c0,1.185-0.18,2.31-0.594,3.313
	c-0.414,1.008-0.946,1.896-1.656,2.666c-0.71,0.769-1.599,1.303-2.604,1.717c-1.008,0.414-2.133,0.65-3.375,0.65
	c-1.244,0-2.369-0.236-3.375-0.65c-1.008-0.414-1.896-1.008-2.605-1.717c-0.71-0.771-1.303-1.604-1.658-2.666
	c-0.415-1.006-0.592-2.131-0.592-3.313c0-1.187,0.178-2.312,0.592-3.315c0.415-1.006,0.947-1.896,1.658-2.664
	c0.711-0.77,1.6-1.304,2.605-1.717c1.005-0.414,2.131-0.646,3.375-0.646c1.242,0,2.367,0.232,3.375,0.646
	c1.006,0.413,1.895,1.006,2.604,1.717s1.303,1.604,1.656,2.604C156.414,68.774,156.651,69.901,156.651,71.145z M153.513,71.145
	c0-0.89-0.118-1.718-0.355-2.429c-0.236-0.711-0.592-1.303-1.007-1.776s-1.006-0.888-1.599-1.125
	c-0.651-0.235-1.362-0.414-2.131-0.414c-0.771,0-1.541,0.119-2.133,0.414c-0.65,0.237-1.184,0.651-1.599,1.125
	c-0.474,0.476-0.771,1.125-1.007,1.776c-0.236,0.65-0.354,1.48-0.354,2.429s0.118,1.717,0.354,2.429
	c0.238,0.711,0.593,1.303,1.007,1.774c0.474,0.476,1.007,0.889,1.599,1.125c0.651,0.235,1.362,0.414,2.133,0.414
	c0.77,0,1.479-0.117,2.131-0.414c0.65-0.236,1.184-0.649,1.599-1.125c0.415-0.474,0.771-1.063,1.007-1.774
	C153.395,72.802,153.513,72.035,153.513,71.145z M178.737,72.919v6.336h-3.02V62.973h4.976c1.125,0,2.071,0.118,2.842,0.354
	c0.771,0.232,1.42,0.527,1.953,0.941c0.533,0.416,0.894,0.895,1.125,1.48c0.235,0.592,0.354,1.186,0.354,1.895
	c0,0.533-0.06,1.066-0.235,1.541c-0.177,0.479-0.414,0.947-0.711,1.307c-0.298,0.416-0.65,0.77-1.125,1.061
	c-0.474,0.298-0.947,0.533-1.539,0.712c0.354,0.233,0.711,0.532,1.006,0.946l4.086,5.979h-2.726c-0.235,0-0.473-0.06-0.649-0.179
	c-0.178-0.118-0.354-0.235-0.476-0.477l-3.435-5.211c-0.116-0.178-0.297-0.354-0.413-0.414c-0.179-0.061-0.355-0.115-0.652-0.115
	h-1.36L178.737,72.919L178.737,72.919z M178.737,70.731h1.896c0.592,0,1.063-0.062,1.479-0.235c0.414-0.119,0.771-0.354,1.064-0.595
	c0.295-0.235,0.475-0.53,0.592-0.889c0.119-0.354,0.18-0.71,0.18-1.125c0-0.828-0.297-1.479-0.828-1.896
	c-0.527-0.418-1.357-0.65-2.482-0.65h-1.953v5.39H178.737L178.737,70.731z M210.057,69.785h0.711c0.299,0,0.533-0.062,0.713-0.119
	c0.178-0.06,0.354-0.179,0.473-0.354l4.5-5.687c0.184-0.235,0.354-0.414,0.598-0.479c0.178-0.113,0.479-0.113,0.771-0.113h2.604
	l-5.506,6.75c-0.184,0.232-0.354,0.414-0.479,0.529c-0.18,0.117-0.354,0.236-0.533,0.354c0.234,0.119,0.479,0.238,0.648,0.354
	c0.18,0.119,0.416,0.354,0.594,0.651l5.625,7.64h-2.664c-0.354,0-0.646-0.062-0.828-0.179c-0.178-0.118-0.297-0.237-0.477-0.477
	l-4.615-5.979c-0.18-0.18-0.299-0.354-0.533-0.414c-0.178-0.061-0.477-0.119-0.771-0.119h-0.945v7.104h-3.021V62.971h3.021v6.812
	h0.115V69.785z"/>
<path id="The" fill="#FFFFFF" d="M101.822,3.053v1.954h-3.849v10.895h-2.368V5.007h-3.908V3.053H101.822z M117.158,15.901h-2.428
	v-5.625h-6.04v5.625h-2.428V3.052h2.428v5.506h6.04V3.052h2.428V15.901z M130.776,3.053v1.896h-5.684v3.553h4.5v1.836h-4.5v3.611
	h5.684v1.896h-8.112V2.995L130.776,3.053L130.776,3.053z"/>
<g>
	<path fill="#FFFFFF" d="M265.487,22.224l2.939,2.332c0.783-1.489,1.42-2.828,3.432-5.754
		C268.034,20.438,265.487,22.224,265.487,22.224z"/>
	<path fill="#FFFFFF" d="M241.627,18.603c-0.05-0.695-0.195-2.183-0.394-2.729c-0.489-1.438-2.449-4.812-3.33-6.299
		c-0.049-0.1-0.196,0-0.146,0.099l3.231,9.375c0.099-0.05,0.196-0.149,0.244-0.199C241.334,18.751,241.48,18.653,241.627,18.603z"/>
	<path fill="#FFFFFF" d="M238.247,22.025c-0.195,0.198-0.539,0-0.539,0s-2.549-2.728-3.037-3.026
		c-1.42-0.892-5.781-1.488-7.35-1.687c-0.102,0-0.146,0.149-0.05,0.149c0,0,10.288,5.456,10.338,5.357
		C237.803,22.521,238.049,22.273,238.247,22.025z"/>
	<path fill="#FFFFFF" d="M282.342,77.233c0.783,0.548,2.449,0.494,3.381,0.444l1.078-0.196c0.098,0,0.098-0.147,0.047-0.147
		c-1.664-0.742-8.229-4.414-9.648-6.945c-0.297-0.545,0.832-4.363,0.832-4.363l-5.145-1.59c0,0,1.861,5.311,2.645,6.4
		C276.656,72.421,280.282,75.792,282.342,77.233z"/>
	<path fill="#FFFFFF" d="M286.408,50.449c-0.59-0.445-0.637,0-2.256,4.268c-1.616,4.215-6.024,9.82-13.179,8.283
		c0.244,0.346,0.589,0.594,0.979,0.938c0.345,0.351,1.812,1.438,1.812,1.438s3.086,2.729,5.978,3.324
		c7.104,1.438,10.144-6.695,11.072-9.127c0.59-1.537,1.127-4.516,1.225-6.398c0-0.348,0-1.34-0.192-1.141
		c-0.687,0.742-1.617,0.693-2.695,0.396C288.121,52.184,286.75,50.746,286.408,50.449z"/>
	<path fill="#FFFFFF" d="M305.807,2.879L305.807,2.879c-0.637-0.794-1.176-1.389-1.909-1.785c-1.961-1.29-4.703-1.637-9.063,0.049
		c-4.558,1.736-8.082,4.067-11.171,6.746c-9.553,7.54-13.376,17.658-13.376,17.658s1.717,1.042,2.402,1.388
		c1.613,0.943,4.164,2.432,4.164,2.432s11.808,0.594,19.988-4.564c3.822-2.43,9.455-11.954,9.849-18.056
		C306.885,5.209,306.641,3.92,305.807,2.879z"/>
	<path fill="#FFFFFF" d="M312.327,17.413c-0.102-1.637-5.05-3.621-5.54-2.529c-1.565,3.372-3.969,8.581-9.108,11.557
		C302.379,25.101,312.62,22.224,312.327,17.413z"/>
	<path fill="#FFFFFF" d="M270.924,34.575c-6.418,3.273-8.279,9.424-8.183,13.689c0.05,1.19,0.197,2.381,0.49,3.373
		c0.392,1.389,0.44,1.637,0.979,2.877c0.832-6.896,3.281-12.5,7.889-15.971c2.892-2.183,5.34-2.679,7.201-2.679
		c0.686-0.049,1.859,0.05,2.059,0.148C280.674,35.071,277,31.4,270.924,34.575z"/>
	<path fill="#FFFFFF" d="M285.33,39.437c-1.127-1.092-1.471-1.142-2.399-1.688c-1.422-0.197-4.116-0.247-7.008,1.189
		c-4.897,2.48-7.396,6.794-9.309,12.699c-0.734,2.229-0.979,5.062-0.932,5.108c1.617,2.43,2.354,3.869,4.509,4.412
		c6.222,1.537,10.483-4.266,12.196-8.232c0.884-2.084,2.304-6.051,2.695-6.25c0.688-0.395,2.059,1.787,2.939,2.73
		c1.176,1.188,2.105,1.637,3.234,1.389C294.342,50.1,287.584,41.569,285.33,39.437z"/>
	<path fill="#FFFFFF" d="M277.098,83.533c-1.225-0.843-7.74-5.507-8.771-8.084c-0.636-1.537,0.298-5.011,0-6.646
		c-0.146-0.744-0.78-3.422-1.368-5.061c-1.129-3.074-4.509-8.88-5.438-12.005c-0.147-0.545-2.011-8.134,2.155-13.79
		c5.535-7.54,10.729-6.845,12.64-6.249c-1.175-1.688-6.466-3.125-8.279-4.514c-2.303-1.785-5.928-5.655-8.671-7.143
		c-0.688-0.396-1.322-0.644-2.01-0.843c-0.686-0.199-1.42-0.148-2.253-0.199c-1.224,0-8.818,0.744-12.248,10.218
		c-2.252,6.25-0.44,8.928,0.049,9.772c0.146,0.248,0.345,0.494,0.589,0.744c1.616,1.736,4.896,4.265,5.045,6.845
		c0.049,1.189-1.959,2.627-2.156,3.818c-0.392,2.629,1.568,8.283,2.306,10.814c0.784,2.526,3.819,9.92,3.819,9.92
		c-0.049-0.646,0.295-1.242,0.441-1.488c0,0,1.127,0.494,1.422,0.842l0.243,0.35c0,0-0.049-0.147-0.194-0.396
		c-0.686-1.39-2.597-5.258-3.431-7.095c-0.293-0.645-0.685-1.637-1.028-2.432c-0.686-1.586-0.05-5.654,0.688-7.19
		c0.833-1.687,3.035-2.229,3.035-2.229s7.009,8.928,8.574,12.352c1.078,2.381,1.42,7.836,2.6,10.166
		c1.074,2.184,5.291,6.4,7.494,8.582c0.883,0.844,2.059,1.289,3.283,1.191l1.371-0.101
		C277.098,83.682,277.147,83.582,277.098,83.533z"/>
	<path fill="#FFFFFF" d="M241.774,40.329c-0.245-0.297-0.587-0.743-0.688-0.941c-0.293-0.547-1.176-2.084-1.029-4.713
		c-0.096-1.191-0.293-0.248-0.293-0.148c-0.637,1.588-0.588,4.762,0.244,7.043c0.883,2.332-0.931,4.713-1.565,6.15
		c-0.538,1.24-0.64,1.688-0.146,1.141c0.783-0.744,3.524-3.322,4.018-4.214c0,0,0.539-0.744,0.588-3.076
		C242.508,41.122,242.117,40.677,241.774,40.329z"/>
	<path fill="#FFFFFF" d="M248.143,19.148c1.617-0.843,2.939-0.942,2.4-0.893c-1.666,0.049-3.625,0.297-5.488,1.637
		c-0.049,0.049-0.244-0.099-0.488-0.297c-0.639-0.646-2.059-1.091-2.938-0.942c-1.617,0.248-3.332,0.694-4.947,3.224
		c-1.666,2.629-4.557,11.409-1.912,12.996c0.882,0.495,3.234-1.438,5.291-2.827c0.394-1.042,0.932-3.076,1.472-4.415
		C244.028,21.281,246.674,20.091,248.143,19.148z M240.842,21.877c-0.539,0.347-1.959,0.744-2.303,0
		c-0.195-0.397,0.784-0.993,1.422-0.893C240.303,21.082,241.235,21.629,240.842,21.877z"/>
</g>
</svg>
