<?xml version="1.0" encoding="UTF-8"?>
<svg width="2498px" height="543px" viewBox="0 0 2498 543" version="1.1" xmlns="http://www.w3.org/2000/svg" xmlns:xlink="http://www.w3.org/1999/xlink">
    <!-- Generator: Sketch 52.2 (67145) - http://www.bohemiancoding.com/sketch -->
    <title>coinbase</title>
    <desc>Created with Sketch.</desc>
    <g id="Page-1" stroke="none" stroke-width="1" fill="none" fill-rule="evenodd">
        <g id="coinbase" fill="#FFFFFF">
            <path d="M162.212435,542.609672 C80.6062176,542.609672 0.727115717,483.887737 0.727115717,351.331606 C0.727115717,218.343696 80.6062176,160.48532 162.212435,160.48532 C202.367876,160.48532 233.887737,170.848014 256.340242,185.528497 L231.728843,239.500864 C216.61658,228.70639 194.164076,221.797927 171.711572,221.797927 C122.488774,221.797927 77.5837651,260.658031 77.5837651,350.468048 C77.5837651,440.278066 123.784111,480.001727 171.711572,480.001727 C194.164076,480.001727 216.61658,473.093264 231.728843,462.298791 L256.340242,517.566494 C233.02418,533.110535 202.367876,542.609672 162.212435,542.609672" id="Fill-1"></path>
            <path d="M443.300518,542.609672 C339.241796,542.609672 281.815199,460.139896 281.815199,351.331606 C281.815199,242.523316 338.810017,160.48532 443.300518,160.48532 C547.35924,160.48532 604.785838,242.091537 604.785838,351.331606 C604.785838,460.139896 547.35924,542.609672 443.300518,542.609672 Z M443.300518,219.639033 C385.442142,219.639033 356.944732,271.452504 356.944732,350.468048 C356.944732,429.483592 385.442142,481.728843 443.300518,481.728843 C501.158895,481.728843 529.656304,429.483592 529.656304,350.468048 C529.656304,271.452504 501.158895,219.639033 443.300518,219.639033 Z" id="Fill-2" fill-rule="nonzero"></path>
            <path d="M704.958549,101.331606 C680.34715,101.331606 660.48532,82.3333333 660.48532,59.0172712 C660.48532,35.701209 680.34715,16.7029361 704.958549,16.7029361 C729.569948,16.7029361 749.431779,35.701209 749.431779,59.0172712 C749.431779,82.3333333 729.138169,101.331606 704.958549,101.331606 Z M667.393782,167.825561 L742.523316,167.825561 L742.523316,534.837651 L667.393782,534.837651 L667.393782,167.825561 Z" id="Fill-3" fill-rule="nonzero"></path>
            <path d="M1036.99655,534.837651 L1036.99655,290.018998 C1036.99655,247.272884 1011.08981,220.502591 960.139896,220.502591 C932.937824,220.502591 907.894646,225.252159 892.782383,231.297064 L892.782383,535.26943 L818.516408,535.26943 L818.516408,186.392055 C855.217617,171.279793 902.28152,160.48532 959.708117,160.48532 C1062.4715,160.48532 1112.12608,205.390328 1112.12608,283.110535 L1112.12608,535.26943 L1036.99655,535.26943" id="Fill-4"></path>
            <path d="M1309.44905,542.609672 C1261.95337,542.609672 1214.88946,530.951641 1185.96028,516.702936 L1185.96028,0.295336788 L1260.22625,0.295336788 L1260.22625,177.324698 C1277.92919,169.120898 1306.4266,162.212435 1331.90155,162.212435 C1426.46114,162.212435 1490.7962,230.433506 1490.7962,342.696028 C1490.7962,481.297064 1419.1209,542.609672 1309.44905,542.609672 Z M1318.94819,220.502591 C1298.65458,220.502591 1274.47496,225.252159 1260.22625,232.592401 L1260.22625,473.525043 C1271.02073,478.274611 1292.17789,483.02418 1313.33506,483.02418 C1372.48877,483.02418 1416.09845,442.005181 1416.09845,348.309154 C1416.53022,267.998273 1378.53368,220.502591 1318.94819,220.502591 Z" id="Fill-5" fill-rule="nonzero"></path>
            <path d="M1692.86874,542.609672 C1587.51468,542.609672 1533.97409,499.863558 1533.97409,427.324698 C1533.97409,324.993092 1642.78238,306.858377 1753.74957,300.813472 L1753.74957,277.497409 C1753.74957,231.297064 1723.09326,214.889465 1676.02936,214.889465 C1641.48705,214.889465 1599.17271,225.683938 1574.56131,237.341969 L1555.56304,186.392055 C1584.92401,173.438687 1634.57858,160.48532 1683.80138,160.48532 C1771.4525,160.48532 1824.99309,194.595855 1824.99309,285.26943 L1824.99309,516.702936 C1798.65458,530.951641 1744.68221,542.609672 1692.86874,542.609672 Z M1754.18135,350.468048 C1679.05181,354.354059 1604.35406,360.830743 1604.35406,426.029361 C1604.35406,464.889465 1634.1468,488.637306 1690.70984,488.637306 C1714.45769,488.637306 1742.52332,484.751295 1754.18135,479.138169 L1754.18135,350.468048 Z" id="Fill-6" fill-rule="nonzero"></path>
            <path d="M1992.52332,542.609672 C1949.7772,542.609672 1904.87219,530.951641 1878.1019,516.702936 L1903.14508,459.708117 C1922.14335,471.366149 1962.29879,483.455959 1990.36442,483.455959 C2030.51986,483.455959 2057.29016,463.594128 2057.29016,432.937824 C2057.29016,399.690846 2029.22453,386.737478 1992.09154,372.920553 C1942.86874,354.354059 1888.03282,331.901554 1888.03282,263.248705 C1888.03282,202.799655 1935.09672,160.48532 2016.70294,160.48532 C2061.17617,160.48532 2097.87737,171.279793 2123.78411,186.392055 L2100.46805,238.205527 C2084.06045,227.842832 2051.24525,216.61658 2024.90674,216.61658 C1986.04663,216.61658 1964.45769,236.91019 1964.45769,263.680484 C1964.45769,296.927461 1991.65976,308.585492 2027.92919,322.402418 C2078.8791,341.400691 2135.44214,362.557858 2135.44214,434.233161 C2135.01036,499.431779 2084.49223,542.609672 1992.52332,542.609672" id="Fill-7"></path>
            <path d="M2497.27288,349.604491 L2253.31779,383.715026 C2260.65803,449.777202 2303.83592,483.02418 2365.58031,483.02418 C2402.28152,483.02418 2442.00518,473.956822 2467.04836,460.571675 L2488.63731,516.271157 C2460.1399,531.38342 2410.9171,542.177893 2360.39896,542.177893 C2244.68221,542.177893 2179.91537,467.911917 2179.91537,350.899827 C2179.91537,238.637306 2242.52332,160.053541 2345.2867,160.053541 C2440.70984,160.053541 2497.27288,222.661485 2497.27288,321.53886 C2498.13644,330.606218 2498.13644,340.105354 2497.27288,349.604491 Z M2344.85492,214.889465 C2287.8601,214.889465 2250.29534,258.499136 2249,334.924007 L2426.89292,310.312608 C2426.02936,246.409326 2393.64594,214.889465 2344.85492,214.889465 Z" id="Fill-8" fill-rule="nonzero"></path>
        </g>
    </g>
</svg>