<?xml version="1.0" encoding="UTF-8"?>
<svg width="127px" height="67px" viewBox="0 0 127 67" version="1.1" xmlns="http://www.w3.org/2000/svg" xmlns:xlink="http://www.w3.org/1999/xlink">
    <!-- Generator: Sketch 52.2 (67145) - http://www.bohemiancoding.com/sketch -->
    <title>kyber-network-1</title>
    <desc>Created with Sketch.</desc>
    <g id="Page-1" stroke="none" stroke-width="1" fill="none" fill-rule="evenodd">
        <g id="kyber-network-1" transform="translate(-1.000000, -1.000000)" fill="#FFFFFF">
            <g id="Group" transform="translate(57.000000, 17.000000)">
                <path d="M11.77,15.45 C11.4121009,15.6463971 11.0080344,15.7430968 10.6,15.73 C10.44,15.73 10.09,15.73 9.51,15.65 L9.51,17.29 C10.0094359,17.4193273 10.524186,17.4798861 11.04,17.47 C11.7561642,17.4963559 12.460447,17.2815497 13.04,16.86 C13.6616921,16.3465884 14.1461854,15.6868529 14.45,14.94 L18.94,4.82 L16.82,4.82 L14.1,11.45 L11.46,4.82 L9.31,4.82 L13,13.53 L12.62,14.38 C12.4521681,14.8148624 12.1556284,15.1881536 11.77,15.45 Z" id="Path"></path>
                <path d="M22.26,12.7 C22.6104037,13.1693631 23.0751668,13.5411736 23.61,13.78 C24.1934694,14.0461345 24.8287693,14.1793426 25.47,14.17 C26.6842521,14.2177246 27.8568496,13.723035 28.67,12.82 C29.5386489,11.906806 30.0159424,10.6902461 30,9.43 C30.0408157,8.15159145 29.556615,6.91218199 28.66,6 C27.8176643,5.10757076 26.6368884,4.61346149 25.41,4.64 L25.48,4.64 C24.2923911,4.59187408 23.1488333,5.09356394 22.38,6 L22.38,0.1 L20.38,0.1 L20.38,14 L22.22,14 L22.22,12.7 L22.26,12.7 Z M23.1,7.25 C23.6337076,6.72905075 24.3543537,6.44439558 25.1,6.46 C25.853038,6.44672958 26.5776331,6.74743652 27.1,7.29 C27.6467806,7.85729061 27.939202,8.62264054 27.91,9.41 C27.9455472,10.2102839 27.6529962,10.9904199 27.1,11.57 C26.5888455,12.1320893 25.8595905,12.445669 25.1,12.43 C24.3619974,12.4557092 23.6435353,12.1898782 23.1,11.69 C22.5141668,11.1055849 22.2112612,10.2954037 22.27,9.47 C22.2139281,8.64498348 22.5164336,7.83587247 23.1,7.25 Z" id="Shape" fill-rule="nonzero"></path>
                <path d="M4.72,26.48 C3.68434132,26.4425643 2.68136034,26.8459371 1.96,27.59 L1.96,26.69 L0.11,26.69 L0.11,35.82 L2.11,35.82 L2.11,30.37 C2.08208498,29.8074514 2.29266824,29.2592088 2.69,28.86 C3.09461333,28.4636674 3.64395338,28.2504367 4.21,28.27 C4.76031633,28.2559787 5.29207967,28.4694075 5.68,28.86 C6.0675088,29.2763186 6.26957948,29.8320129 6.24,30.4 L6.24,35.82 L8.24,35.82 L8.24,30.13 C8.28627365,29.1689138 7.96035326,28.2269681 7.33,27.5 C6.65082297,26.7949815 5.69724374,26.4223184 4.72,26.48 Z" id="Path"></path>
                <path d="M14.73,26.47 C13.4685647,26.4699549 12.2593689,26.9737799 11.371163,27.869497 C10.4829571,28.7652142 9.98933247,29.9786098 10,31.24 C9.96668081,32.5190677 10.479428,33.7518428 11.41,34.63 C12.3512485,35.5352824 13.6143643,36.0282934 14.92,36 C16.2903917,36.0132872 17.6114529,35.4891705 18.6,34.54 L17.67,33.21 C16.9434658,33.8854002 15.9918879,34.2667441 15,34.28 C14.2818229,34.2982613 13.578054,34.0765741 13,33.65 C12.4448654,33.2118502 12.0854188,32.5720352 12,31.87 L18.87,31.87 C18.9680938,31.4710464 19.0118229,31.0606661 19,30.65 C19.0344426,29.522727 18.5914067,28.4332943 17.78,27.65 C16.9716642,26.8496396 15.8665241,26.4220771 14.73,26.47 Z M12,30.37 C12.1356619,29.7277136 12.4888907,29.1519506 13,28.74 C13.4733007,28.3417241 14.0714275,28.122293 14.69,28.12 C15.3054201,28.1057988 15.9029459,28.3276347 16.36,28.74 C16.7928241,29.169313 17.0250993,29.7608888 17,30.37 L12,30.37 Z" id="Shape" fill-rule="nonzero"></path>
                <path d="M36.71,14.19 C38.0803917,14.2032872 39.4014529,13.6791705 40.39,12.73 L39.45,11.4 C38.7241249,12.0827487 37.766502,12.4650832 36.77,12.47 C36.0518229,12.4882613 35.348054,12.2665741 34.77,11.84 C34.2148654,11.4018502 33.8554188,10.7620352 33.77,10.06 L40.6,10.06 C40.7185795,9.66415492 40.7792087,9.25322368 40.78,8.84 C40.8144426,7.71272695 40.3714067,6.62329432 39.56,5.84 C38.7596338,5.05770892 37.6789846,4.62905138 36.56,4.65 C35.2932743,4.64730792 34.0779465,5.15069267 33.184114,6.04828085 C32.2902814,6.94586903 31.7919967,8.16329673 31.8,9.43 C31.7716254,10.7061411 32.2794299,11.9357535 33.2,12.82 C34.1387936,13.7291135 35.4035749,14.2227746 36.71,14.19 Z M34.71,6.94 C35.1873255,6.54312239 35.7892397,6.32714139 36.41,6.33 C37.0199818,6.31956434 37.6119134,6.53708138 38.07,6.94 C38.5170404,7.36347824 38.7671285,7.9542662 38.76,8.57 L33.76,8.57 C33.8827822,7.93234133 34.2218716,7.35659585 34.72,6.94 L34.71,6.94 Z" id="Shape" fill-rule="nonzero"></path>
                <path d="M25.58,34.22 C25.104557,34.2618628 24.6288977,34.1420671 24.23,33.88 C23.9034752,33.5626673 23.7411915,33.1126988 23.79,32.66 L23.79,28.38 L26.52,28.38 L26.52,26.69 L23.79,26.69 L23.79,24.31 L21.79,24.31 L21.79,26.69 L20.31,26.69 L20.31,28.38 L21.8,28.38 L21.8,32.82 C21.7350731,33.7041756 22.0645475,34.5717913 22.7,35.19 C23.4081711,35.7429286 24.2929336,36.0200832 25.19,35.97 C25.7423091,35.9549595 26.2917208,35.884608 26.83,35.76 L26.83,34.12 C26.28,34.18 25.9,34.22 25.61,34.22 L25.58,34.22 Z" id="Path"></path>
                <polygon id="Path" points="38.87 32.55 36.03 26.48 35.36 26.48 32.57 32.63 30.14 26.69 28.05 26.69 32.14 35.97 32.81 35.97 35.7 29.93 38.58 35.97 39.27 35.97 43.35 26.69 41.26 26.69"></polygon>
                <path d="M48.77,26.48 C47.4821924,26.4521086 46.2378474,26.9462398 45.32,27.85 C44.416728,28.740749 43.908209,29.9564046 43.908209,31.225 C43.908209,32.4935954 44.416728,33.709251 45.32,34.6 C47.2514915,36.4412709 50.2885085,36.4412709 52.22,34.6 C53.1365694,33.7143925 53.654177,32.4945195 53.654177,31.22 C53.654177,29.9454805 53.1365694,28.7256075 52.22,27.84 C51.2986242,26.9428008 50.0557539,26.4528577 48.77,26.48 Z M50.77,33.32 C49.6355593,34.4277195 47.8244407,34.4277195 46.69,33.32 C46.1478666,32.7619272 45.8555432,32.0076604 45.88,31.23 C45.8464557,30.4448937 46.1397113,29.6809808 46.69,29.12 C47.217848,28.5817928 47.9362596,28.2728759 48.69,28.26 C49.4415515,28.2643348 50.1607421,28.5663948 50.69,29.1 C51.2352301,29.6642181 51.527619,30.425873 51.5,31.21 C51.5372008,31.9810592 51.2757417,32.7367835 50.77,33.32 Z" id="Shape" fill-rule="nonzero"></path>
                <path d="M57.29,27.87 L57.29,26.68 L55.46,26.68 L55.46,35.8 L57.46,35.8 L57.46,30.92 C57.4265894,30.2211658 57.70497,29.5435288 58.22,29.07 C58.7518255,28.6190575 59.4332285,28.3835989 60.13,28.41 L60.72,28.41 L60.72,26.69 C60.4820333,26.6262122 60.2363339,26.5959205 59.99,26.6 C58.9359822,26.5539083 57.9266091,27.0286875 57.29,27.87 Z" id="Path"></path>
                <path d="M44.57,9.13 C44.5351822,8.43092355 44.8137989,7.75271191 45.33,7.28 C45.8622964,6.82883598 46.5425063,6.5902283 47.24,6.61 L47.84,6.61 L47.84,4.9 C47.5984924,4.83691442 47.3495885,4.80664233 47.1,4.81 C46.0507743,4.77116544 45.0492481,5.2495063 44.42,6.09 L44.42,4.9 L42.58,4.9 L42.58,14 L44.58,14 L44.58,9.13 L44.57,9.13 Z" id="Path"></path>
                <polygon id="Path" points="62.53 21.89 64.5 21.89 64.5 35.81 62.53 35.81"></polygon>
                <polygon id="Path" points="66.88 30.68 70.59 26.69 68.16 26.69 64.56 30.67 68.57 35.8 70.94 35.8"></polygon>
                <polygon id="Path" points="8.17 4.88 5.73 4.88 2.14 8.87 6.15 14.01 8.52 14.01 4.46 8.89"></polygon>
                <polygon id="Path" points="0.11 0.09 2.08 0.09 2.08 14.01 0.11 14.01"></polygon>
            </g>
            <path d="M21,34.51 L46,48.83 C46.4090806,49.0758881 46.9190357,49.0817887 47.3336963,48.8454322 C47.748357,48.6090756 48.0031263,48.167282 48,47.69 L48,21.31 C48.0060285,20.8317474 47.7509319,20.3882226 47.3345111,20.1529449 C46.9180904,19.9176671 46.4065428,19.928038 46,20.18 L21,34.51 Z" id="Path"></path>
            <path d="M45.47,13.84 L28.38,1.27 C28.0192695,0.994251343 27.5447207,0.916714024 27.1149831,1.06330676 C26.6852455,1.20989949 26.3570111,1.56128341 26.24,2 L20,30 L45.32,16 C45.711835,15.7984349 45.9699054,15.4068202 46.0005732,14.9672493 C46.0312409,14.5276783 45.8300498,14.1040222 45.47,13.85" id="Path"></path>
            <path d="M28.36,67.74 L45.47,55.17 C45.8300974,54.9127379 46.0317571,54.4877154 46.0032645,54.0460797 C45.9747719,53.604444 45.7201697,53.2088577 45.33,53 L20,39 L26.24,67 C26.3451493,67.4419177 26.6654975,67.801326 27.0924622,67.9564028 C27.5194269,68.1114796 27.9957571,68.041431 28.36,67.77" id="Path"></path>
            <path d="M14.5,34 L21,3.59 C21.1015494,3.07468391 20.880531,2.54925114 20.4411646,2.26146619 C20.0017983,1.97368125 19.4318202,1.98101133 19,2.28 L2.35,15.05 C1.49537258,15.7056545 0.996022687,16.7228487 1,17.8 L1,50.2 C0.980221306,51.2946705 1.48120548,52.3337488 2.35,53 L18.92,65.72 C19.3518202,66.0189887 19.9217983,66.0263188 20.3611646,65.7385338 C20.800531,65.4507489 21.0215494,64.9253161 20.92,64.41 L14.5,34 Z" id="Path"></path>
        </g>
    </g>
</svg>