<?xml version="1.0" encoding="UTF-8"?>
<svg width="824px" height="286px" viewBox="0 0 824 286" version="1.1" xmlns="http://www.w3.org/2000/svg" xmlns:xlink="http://www.w3.org/1999/xlink">
    <!-- Generator: Sketch 53 (72520) - https://sketchapp.com -->
    <title>Group</title>
    <desc>Created with Sketch.</desc>
    <g id="Page-1" stroke="none" stroke-width="1" fill="none" fill-rule="evenodd">
        <g id="Group">
            <path d="M391.107964,223 L367,223 L367,98.3846154 L397.651555,98.3846154 L432.005404,182.152407 L433.555202,182.152407 L467.995151,98.3846154 L498.560606,98.3846154 L498.560606,223 L474.452642,223 L474.452642,139.664001 L473.075044,139.664001 L441.47639,215.832241 L424.170316,215.832241 L392.485562,139.664001 L391.107964,139.664001 L391.107964,223 Z M526.257576,223 L526.257576,127.807692 L552.223485,127.807692 L552.223485,223 L526.257576,223 Z M539.24053,113.961538 C534.792085,113.961538 531.227679,112.754722 528.547205,110.341052 C525.866732,107.927382 524.526515,104.807319 524.526515,100.980769 C524.526515,97.0953495 525.866732,93.9605692 528.547205,91.5763344 C531.227679,89.1920995 534.792085,88 539.24053,88 C543.688976,88 547.253382,89.1920995 549.933855,91.5763344 C552.614329,93.9605692 553.954545,97.0953495 553.954545,100.980769 C553.954545,104.807319 552.600071,107.927382 549.891082,110.341052 C547.182093,112.754722 543.631944,113.961538 539.24053,113.961538 Z M576.458333,223 L576.458333,128.140946 L601.151206,128.140946 L601.151206,143.363115 L602.727346,143.363115 C604.94563,138.031029 608.740005,133.817025 614.110585,130.720975 C619.481166,127.624925 625.698104,126.076923 632.761585,126.076923 C643.502746,126.076923 651.80659,129.172927 657.673365,135.365026 C663.540141,141.557126 666.473485,150.329136 666.473485,161.681319 L666.473485,223 L640.992542,223 L640.992542,167.615385 C640.992542,161.079279 639.431011,156.11994 636.307901,152.737219 C633.184792,149.354498 628.616948,147.663163 622.604233,147.663163 C616.299638,147.663163 611.279388,149.540832 607.543332,153.296226 C603.807276,157.051619 601.939276,162.053958 601.939276,168.303392 L601.939276,223 L576.458333,223 Z M697.199811,103.576923 L722.386742,103.576923 L722.386742,127.041281 L742.640152,127.041281 L742.640152,147.09105 L722.386742,147.09105 L722.386742,190.517624 C722.386742,194.720216 723.382092,197.813745 725.372822,199.798303 C727.363552,201.78286 730.493855,202.775124 734.763826,202.775124 C737.533537,202.775124 739.985848,202.658387 742.120833,202.42491 L742.120833,221.861804 C738.254779,222.620605 734.071424,223 729.570644,223 C717.97248,223 709.677897,220.957104 704.686648,216.87125 C699.695398,212.785396 697.199811,206.014654 697.199811,196.55882 L697.199811,147.09105 L682.05303,147.09105 L682.05303,127.041281 L697.199811,127.041281 L697.199811,103.576923 Z M763.412879,223 L763.412879,127.633226 L788.103006,127.633226 L788.103006,142.850408 L789.678972,142.850408 C790.963098,138.008553 793.881524,134.002555 798.434336,130.832293 C802.987148,127.66203 808.240314,126.076923 814.193992,126.076923 C818.454957,126.076923 821.723594,126.480405 824,127.287381 L824,150.199616 C823.00772,149.796128 821.242073,149.435876 818.703005,149.11885 C816.163936,148.801824 813.960525,148.643313 812.092705,148.643313 C805.146747,148.643313 799.54337,150.574262 795.282405,154.436218 C791.02144,158.298173 788.890989,163.543438 788.890989,170.172168 L788.890989,223 L763.412879,223 Z" id="Mintr" fill="#FFFFFF"></path>
            <g id="ico-mint-and-burn.107cc7b2">
                <path d="M78.2608696,79.7333333 C116.086957,79.7333333 156.521739,67.7733333 156.521739,39.8666667 C156.521739,11.96 116.086957,0 78.2608696,0 C40.4347826,0 0,11.96 0,39.8666667 C0,67.7733333 40.4347826,79.7333333 78.2608696,79.7333333 Z" id="Shape" fill="#53B167"></path>
                <path d="M0,83.2 L0,103.422222 C0,131.733333 40.4347826,143.866667 78.2608696,143.866667 C116.086957,143.866667 156.521739,131.733333 156.521739,103.422222 L156.521739,83.2 C138.26087,95.3333333 110.869565,103.422222 78.2608696,103.422222 C45.6521739,103.422222 18.2608696,95.3333333 0,83.2 Z" id="Shape" fill="#53B167"></path>
                <path d="M0,149.066667 L0,169.288889 C0,197.6 40.4347826,209.733333 78.2608696,209.733333 C116.086957,209.733333 156.521739,197.6 156.521739,169.288889 L156.521739,149.066667 C138.26087,162.548148 110.869565,169.288889 78.2608696,169.288889 C45.6521739,169.288889 18.2608696,161.2 0,149.066667 Z" id="Shape" fill="#53B167"></path>
                <path d="M220.537257,158.757408 C220.537257,158.757408 230.184602,101.238042 190.819298,76.2666667 C189.633152,96.2550148 180.104582,114.785268 164.618869,127.218758 C147.807142,142.201583 116.188165,175.89 116.524399,211.806833 C116.278014,243.126105 133.572984,271.878221 161.153067,286 C162.12887,271.995341 168.626565,258.97877 179.18041,249.886542 C188.123029,242.915496 193.928703,232.595858 195.293803,221.244833 C218.837226,233.931331 234.064004,258.232865 235.383305,285.226608 L235.383305,285.397017 C261.404541,273.315143 278.53441,247.452522 279.714534,218.465867 C282.507867,184.725017 264.27361,138.84585 248.095556,123.849917 C241.987662,137.671978 232.502597,149.686501 220.537257,158.757408 Z" id="Shape" fill="#D9AB44"></path>
            </g>
        </g>
    </g>
</svg>