<?xml version="1.0" encoding="UTF-8"?>
<svg width="354px" height="100px" viewBox="0 0 354 100" version="1.1" xmlns="http://www.w3.org/2000/svg" xmlns:xlink="http://www.w3.org/1999/xlink">
    <!-- Generator: Sketch 53 (72520) - https://sketchapp.com -->
    <title>Synthetix Exchange logo (light)</title>
    <desc>Created with Sketch.</desc>
    <g id="Page-1" stroke="none" stroke-width="1" fill="none" fill-rule="evenodd">
        <g id="DeFi-the-Odds" transform="translate(-743.000000, -294.000000)" fill="#FFFFFF">
            <g id="Synthetix-Exchange-logo-(light)" transform="translate(743.000000, 294.000000)">
                <g id="Group-14">
                    <g id="S-logo" transform="translate(0.000000, 0.370822)">
                        <path d="M18.7640622,19.45192 C20.2858101,19.45192 21.5194305,19.4671202 21.5194305,20.9548738 C21.5194305,22.4426275 20.2858101,22.7008564 18.7640622,22.7008564 L11.6114278,22.9259201 C4.68526204,22.9259201 0.799939774,18.1455299 0.799939774,11.3729346 C0.799939774,8.03841585 1.9991016,5.3301937 3.78186679,3.33864111 C5.61999808,1.28523824 8.09479309,-5.68394418e-13 11.6114278,-5.68434189e-13 L30.0568262,-5.68434189e-13 C31.0412246,-1.4341563e-08 31.9508461,0.124093596 32.4430453,0.957563242 C32.7004801,1.3934927 32.7428343,1.6233378 32.7309769,1.86423322 C32.7201638,2.08391466 32.6778096,2.31306089 32.4430453,2.71060109 C31.9508461,3.54407073 31.0412246,3.67457946 30.0568262,3.67457945 L11.6114278,3.67457945 C9.7233267,3.69848753 7.56743635,4.53636276 6.1905169,5.94382043 C4.76123665,7.40480021 4.14623769,9.47070357 4.14623769,11.3869829 C4.14623769,15.1493399 7.76342585,19.3073956 11.6114278,19.3561209 L18.7640622,19.45192 Z" id="Path"></path>
                        <path d="M18.0874804,38.6413038 C19.6092284,38.6413038 20.8428488,38.7523031 20.8428488,40.2400567 C20.8428488,41.7278104 19.6092284,42.028486 18.0874804,42.028486 L10.934846,42.028486 C7.53208121,42.028486 5.0543535,40.8926877 3.18935439,38.915657 C1.25823663,36.8685359 -1.0658141e-14,34.1033958 -1.0658141e-14,30.6581175 C-1.27068213e-14,23.8855221 4.00750077,19.4522967 10.934846,19.4522967 L29.3802445,19.4522967 C30.3646428,19.4522967 31.2742644,19.4092765 31.7664636,20.2427461 C32.0115308,20.6577328 32.069315,20.8872334 32.070343,21.1161644 C32.0713797,21.3470241 32.0135955,21.745484 31.7664636,22.163967 C31.2742644,22.9974366 30.3646428,22.9597624 29.3802445,22.9597623 L10.934846,22.9597623 C9.05667875,22.9835446 6.93171124,23.6575399 5.57371312,25.04938 C4.14943543,26.5091514 3.53703817,28.7321254 3.53703817,30.6581175 C3.53703817,34.4204744 7.08684411,38.5925785 10.934846,38.6413038 L18.0874804,38.6413038 Z" id="Path" transform="translate(16.035178, 30.740203) scale(-1, -1) translate(-16.035178, -30.740203) "></path>
                        <polygon id="Path" fill-opacity="0.5" points="3.78815162 41.0283188 0.799939774 38.8705338 28.4203964 -8.45545856e-13 31.2545149 2.04651434"></polygon>
                    </g>
                    <path d="M44.3041619,0.0476228978 L48.0651693,0.0476228978 L61.9152281,23.2548707 L75.884684,0.0476228978 L79.5262943,0.0476228978 L63.5270884,26.8205677 L63.5270884,42.4129373 L60.3033678,42.4129373 L60.3033678,26.8205677 L44.3041619,0.0476228978 Z M91.2358579,42.4129373 L91.2358579,0.108058439 L94.2804829,0.108058439 L118.995674,36.4298187 L118.995674,0.108058439 L122.159696,0.108058439 L122.159696,42.4129373 L119.115071,42.4129373 L94.39988,6.03074148 L94.39988,42.4129373 L91.2358579,42.4129373 Z M134.406547,0.108058439 L166.285561,0.108058439 L166.285561,3.1298355 L151.957914,3.1298355 L151.957914,42.4129373 L148.734194,42.4129373 L148.734194,3.1298355 L134.406547,3.1298355 L134.406547,0.108058439 Z M178.532412,0.0476228978 L181.756132,0.0476228978 L181.756132,19.3265606 L205.934037,19.3265606 L205.934037,0.0476228978 L209.157757,0.0476228978 L209.157757,42.4129373 L205.934037,42.4129373 L205.934037,22.3483376 L181.756132,22.3483376 L181.756132,42.4129373 L178.532412,42.4129373 L178.532412,0.0476228978 Z M224.329836,0.108058439 L250.059902,0.108058439 L250.059902,3.1298355 L227.553556,3.1298355 L227.553556,19.3265606 L246.418291,19.3265606 L246.418291,22.3483376 L227.553556,22.3483376 L227.553556,39.3911603 L250.835983,39.3911603 L250.835983,42.4129373 L224.329836,42.4129373 L224.329836,0.108058439 Z M259.500921,0.108058439 L291.379936,0.108058439 L291.379936,3.1298355 L277.052289,3.1298355 L277.052289,42.4129373 L273.828568,42.4129373 L273.828568,3.1298355 L259.500921,3.1298355 L259.500921,0.108058439 Z M303.626786,0.108058439 L306.850507,0.108058439 L306.850507,42.4129373 L303.626786,42.4129373 L303.626786,0.108058439 Z M334.260784,20.7770136 L320.530122,0.108058439 L324.291129,0.108058439 L336.350232,18.1782853 L348.469034,0.108058439 L351.931549,0.108058439 L338.200887,20.7770136 L352.827027,42.4129373 L349.006321,42.4129373 L336.111438,23.4361774 L323.156857,42.4129373 L319.634644,42.4129373 L334.260784,20.7770136 Z" id="YNTHETIX" fill-rule="nonzero"></path>
                </g>
                <path d="M1,58.3539326 L26.3707714,58.3539326 L26.3707714,61.3033708 L4.17870454,61.3033708 L4.17870454,77.1123596 L22.7800126,77.1123596 L22.7800126,80.0617978 L4.17870454,80.0617978 L4.17870454,96.6966292 L27.1360151,96.6966292 L27.1360151,99.6460674 L1,99.6460674 L1,58.3539326 Z M53.9093065,78.5280899 L40.3703797,58.3539326 L44.0788683,58.3539326 L55.9695779,75.991573 L67.9191524,58.3539326 L71.3333165,58.3539326 L57.7943898,78.5280899 L72.21629,99.6460674 L68.4489365,99.6460674 L55.7341183,81.1235955 L42.9604353,99.6460674 L39.4874062,99.6460674 L53.9093065,78.5280899 Z M82.8605991,79 C82.8605991,74.9100919 83.6454565,71.2724878 85.215195,68.0870787 C86.7849335,64.9016695 89.0217773,62.4241662 91.9257935,60.6544944 C94.8298097,58.8848226 98.1850754,58 101.991691,58 C106.347715,58 109.997303,59.140438 112.940562,61.4213483 C115.883822,63.7022586 117.787101,66.9072827 118.650458,71.0365169 L115.471753,71.0365169 C114.608397,67.8117816 112.979818,65.324447 110.585966,63.5744382 C108.192115,61.8244295 105.268521,60.9494382 101.815097,60.9494382 C98.6756195,60.9494382 95.9286184,61.7162845 93.5740107,63.25 C91.2194029,64.7837155 89.3946093,66.9171212 88.0995751,69.6502809 C86.8045408,72.3834406 86.1570334,75.4999825 86.1570334,79 C86.1570334,82.5000175 86.8045408,85.6165594 88.0995751,88.3497191 C89.3946093,91.0828788 91.2194029,93.2162845 93.5740107,94.75 C95.9286184,96.2837155 98.6756195,97.0505618 101.815097,97.0505618 C105.347008,97.0505618 108.280413,96.1854019 110.615399,94.4550562 C112.950385,92.7247104 114.549532,90.2078817 115.412888,86.9044944 L118.591593,86.9044944 C117.688993,91.0730546 115.795524,94.2977414 112.91113,96.5786517 C110.026735,98.859562 106.386959,100 101.991691,100 C98.1850754,100 94.8298097,99.1250087 91.9257935,97.375 C89.0217773,95.6249912 86.7849335,93.1573193 85.215195,89.9719101 C83.6454565,86.7865009 82.8605991,83.1292341 82.8605991,79 Z M134.357148,58.2949438 L137.535852,58.2949438 L137.535852,77.1123596 L161.376137,77.1123596 L161.376137,58.2949438 L164.554841,58.2949438 L164.554841,99.6460674 L161.376137,99.6460674 L161.376137,80.0617978 L137.535852,80.0617978 L137.535852,99.6460674 L134.357148,99.6460674 L134.357148,58.2949438 Z M178.495584,99.6460674 L194.389107,58.3539326 L198.156461,58.3539326 L214.049983,99.6460674 L210.635819,99.6460674 L205.691168,87.0224719 L186.73667,87.0224719 L181.792019,99.6460674 L178.495584,99.6460674 Z M187.678509,84.0730337 L204.749329,84.0730337 L196.213919,61.8342697 L187.678509,84.0730337 Z M227.990727,99.6460674 L227.990727,58.3539326 L230.992837,58.3539326 L255.362905,93.8061798 L255.362905,58.3539326 L258.482744,58.3539326 L258.482744,99.6460674 L255.480635,99.6460674 L231.110566,64.1348315 L231.110566,99.6460674 L227.990727,99.6460674 Z M274.189435,79 C274.189435,74.9100919 274.974292,71.2724878 276.544031,68.0870787 C278.113769,64.9016695 280.330992,62.4241662 283.195764,60.6544944 C286.060537,58.8848226 289.415803,58 293.261662,58 C297.578443,58 301.208409,59.140438 304.151668,61.4213483 C307.094928,63.7022586 309.017829,66.9072827 309.920428,71.0365169 L306.800589,71.0365169 C305.858746,67.8117816 304.210545,65.324447 301.855937,63.5744382 C299.50133,61.8244295 296.597357,60.9494382 293.143932,60.9494382 C290.004455,60.9494382 287.257454,61.7162845 284.902846,63.25 C282.548239,64.7837155 280.723445,66.9171212 279.428411,69.6502809 C278.133377,72.3834406 277.485869,75.4999825 277.485869,79 C277.485869,82.5000175 278.123566,85.6165594 279.398978,88.3497191 C280.674391,91.0828788 282.479563,93.2162845 284.814549,94.75 C287.149535,96.2837155 289.827861,97.0505618 292.849608,97.0505618 C295.832111,97.0505618 298.431951,96.431186 300.649207,95.1924157 C302.866462,93.9536455 304.573527,92.2626512 305.770453,90.119382 C306.967379,87.9761129 307.565832,85.5477664 307.565832,82.8342697 L307.565832,81.0646067 L294.026906,81.0646067 L294.026906,78.1151685 L310.626807,78.1151685 L310.626807,99.6460674 L307.977887,99.6460674 L307.683562,90.2078652 C306.702476,92.9606879 304.936546,95.2808894 302.385721,97.1685393 C299.834896,99.0561892 296.636602,100 292.790743,100 C289.180344,100 285.962429,99.1151774 283.136899,97.3455056 C280.31137,95.5758338 278.113769,93.0983305 276.544031,89.9129213 C274.974292,86.7275122 274.189435,83.0899081 274.189435,79 Z M327.863985,58.3539326 L353.234756,58.3539326 L353.234756,61.3033708 L331.042689,61.3033708 L331.042689,77.1123596 L349.643997,77.1123596 L349.643997,80.0617978 L331.042689,80.0617978 L331.042689,96.6966292 L354,96.6966292 L354,99.6460674 L327.863985,99.6460674 L327.863985,58.3539326 Z" id="EXCHANGE" fill-rule="nonzero"></path>
            </g>
        </g>
    </g>
</svg>