<svg width="155" height="18" viewBox="0 0 155 18" fill="none" xmlns="http://www.w3.org/2000/svg">
<path d="M7.41833 11.9015C6.28654 13.5836 5.48111 14.7801 5.46866 14.7979C5.4263 14.8573 5.46866 14.8487 5.46866 14.8487L11.8046 14.8491C11.848 14.8491 11.89 14.8652 11.9216 14.8944L14.8131 17.5335C14.8483 17.5654 14.8682 17.6107 14.8682 17.658C14.8682 17.752 14.791 17.8281 14.696 17.8281H0.508703C0.250669 17.8281 0.0182598 17.599 0.0182598 17.3442C0.0182598 17.3442 -0.0714294 16.923 0.146743 16.5676C0.190876 16.5045 1.61878 14.4247 3.33961 11.9177L7.41833 11.9015ZM7.4137 5.98215C8.55439 4.3199 9.37227 3.1284 9.39434 3.0963C9.46837 2.98846 9.39434 2.99451 9.39434 2.99451L5.49784 2.97803H2.84525C2.79934 2.97803 2.7552 2.95991 2.72281 2.92766L0.0687989 0.288738C-0.0393975 0.181607 0.0378347 -0.000690645 0.190876 -0.000690645H5.49784H14.3778C14.6358 -0.000690645 14.8682 0.228323 14.8682 0.482978C14.8682 0.482978 14.9081 0.743498 14.7511 0.988002C14.6782 1.1023 13.1663 3.3526 11.3835 6.00467L7.4137 5.98215Z" fill="white"/>
<path d="M69.0426 11.6372L72.5626 17.612C72.6297 17.7259 72.5448 17.8672 72.4101 17.8672H69.2988C69.236 17.8672 69.1783 17.8346 69.1467 17.7819L64.0215 9.18887C63.9533 9.07472 64.039 8.93208 64.1751 8.93331L66.6014 8.95299C67.4287 8.95299 68.1409 8.66278 68.738 8.08359C69.3587 7.50437 69.6571 6.79082 69.6571 5.96624C69.6571 5.16395 69.3587 4.47346 68.738 3.89347C68.1409 3.31424 67.4287 3.02474 66.6014 3.02474C66.6014 3.02474 60.7814 3.02474 60.5397 3.02474C60.2979 3.02474 60.1389 2.7059 60.1389 2.7059C60.128 2.69558 60.1186 2.68375 60.1113 2.67111L58.6898 0.294358C58.6223 0.180626 58.7065 0.0383733 58.8419 0.0383733H66.6014C68.2788 0.0383733 69.7261 0.617597 70.9207 1.77664C72.1157 2.95748 72.7125 4.33977 72.7125 5.96624C72.7125 7.21416 72.3684 8.32842 71.6333 9.33165C70.961 10.278 70.125 10.9659 69.1261 11.3969C69.0306 11.4381 68.9907 11.5489 69.0426 11.6372Z" fill="white"/>
<path d="M92.486 14.4434L89.5614 17.0362C89.4416 17.1421 89.2363 17.0676 89.2363 16.9185V0.234864C89.2363 0.0863264 89.4405 0.0117129 89.5602 0.11638L92.4848 2.67022C92.521 2.70169 92.5414 2.74432 92.5414 2.78885V14.3257C92.5414 14.3699 92.5214 14.4121 92.486 14.4434Z" fill="white"/>
<path d="M111.378 4.76286C110.198 5.92209 109.63 7.32599 109.63 8.95299C109.63 10.5794 110.198 12.0058 111.378 13.165C112.558 14.3241 114.011 14.8809 115.667 14.8809C117.324 14.8809 118.754 14.3241 119.934 13.165C121.137 11.9835 121.704 10.5794 121.704 8.95299C121.704 7.32599 121.114 5.92209 119.934 4.76286C118.754 3.60392 117.324 3.02474 115.667 3.02474C114.011 3.02474 112.581 3.58164 111.378 4.76286ZM122.067 2.66794C123.86 4.40621 124.768 6.50127 124.768 8.95299C124.768 11.4267 123.86 13.5215 122.067 15.2374C120.297 16.9759 118.186 17.8672 115.667 17.8672C113.148 17.8672 111.038 16.9759 109.268 15.2374C107.497 13.4992 106.59 11.4267 106.59 8.95299C106.59 6.50127 107.497 4.40621 109.268 2.66794C111.015 0.929673 113.148 0.0383733 115.667 0.0383733C118.186 0.0383733 120.297 0.929673 122.067 2.66794Z" fill="white"/>
<path d="M154.34 0.0383733C154.435 0.0383733 154.511 0.114429 154.511 0.208795V17.8229V17.8449V17.8672L139.696 4.59065C139.659 4.55832 139.639 4.51227 139.639 4.46399V0.421118C139.639 0.273583 139.814 0.195767 139.924 0.294358L151.251 10.457C151.362 10.5558 151.537 10.4781 151.537 10.3305V0.208795C151.537 0.114429 151.613 0.0383733 151.708 0.0383733H154.34Z" fill="white"/>
<path d="M34.559 14.8809H43.613C43.7111 14.8809 43.7904 14.9572 43.7904 15.0514V17.6966C43.7904 17.7908 43.7111 17.8672 43.613 17.8672H31.5743C31.4762 17.8672 31.3965 17.7908 31.3965 17.6966C31.3965 17.6492 31.4171 17.6038 31.4534 17.5715L34.4381 14.9262C34.4712 14.897 34.5142 14.8809 34.559 14.8809ZM34.4069 7.48197H41.2995C41.3976 7.48197 41.4773 7.55831 41.4773 7.6524V10.2755C41.4773 10.3697 41.3976 10.4458 41.2995 10.4458H34.4069H34.4921V7.48197H34.4069ZM43.7904 0.208795V2.85431C43.7904 2.9484 43.7111 3.02474 43.613 3.02474H34.5634C34.516 3.02474 34.4704 3.00643 34.437 2.97438L31.6974 0.328866C31.5861 0.221472 31.6654 0.0383733 31.8234 0.0383733H43.613C43.7111 0.0383733 43.7904 0.114429 43.7904 0.208795Z" fill="white"/>
</svg>
